<svg width="18" height="18" viewBox="0 0 18 18" fill="none" xmlns="http://www.w3.org/2000/svg">
<path fill-rule="evenodd" clip-rule="evenodd" d="M18 9C16 5 13 3 9 3C5 3 2 5 0 9C2 13 5 15 9 15C13 15 16 13 18 9ZM12.8814 6.02943L12.8721 5.9944C13.9057 6.61342 14.8003 7.52808 15.5738 8.75681L15.722 9L15.5738 9.24319C13.9622 11.8033 11.8247 13 9 13L8.71023 12.9957C6.02849 12.9158 3.98226 11.715 2.42617 9.24319L2.277 9L2.42617 8.75681C3.19936 7.52861 4.09356 6.6142 5.12699 5.99622C5.0441 6.31698 5 6.65334 5 7C5 9.20914 6.79086 11 9 11C11.2091 11 13 9.20914 13 7C13 6.66528 12.9589 6.34017 12.8814 6.02943Z" fill="black"/>
</svg>
