<svg width="18" height="18" viewBox="0 0 18 18" fill="none" xmlns="http://www.w3.org/2000/svg">
<path fill-rule="evenodd" clip-rule="evenodd" d="M11.3076 3.45981L11 1H6.99998L6.69322 3.45945C6.21334 3.65948 5.765 3.92003 5.35774 4.23158L3.07178 3.26795L1.07178 6.73205L3.04903 8.22918C3.01667 8.48155 2.99998 8.73883 2.99998 9C2.99998 9.26117 3.01667 9.51845 3.04903 9.77082L1.07178 11.2679L3.07178 14.7321L5.35774 13.7684C5.76472 14.0798 6.21272 14.3402 6.69223 14.5401L6.99998 17H11L11.3086 14.5398C11.7878 14.3399 12.2355 14.0796 12.6422 13.7684L14.9282 14.7321L16.9282 11.2679L14.9509 9.77082C14.9833 9.51845 15 9.26117 15 9C15 8.73883 14.9833 8.48155 14.9509 8.22918L16.9282 6.73205L14.9282 3.26795L12.6422 4.23158C12.2352 3.92022 11.7872 3.65979 11.3076 3.45981ZM5.99998 9C5.99998 7.34315 7.34313 6 8.99998 6C10.6568 6 12 7.34315 12 9C12 10.6569 10.6568 12 8.99998 12C7.34313 12 5.99998 10.6569 5.99998 9Z" fill="black"/>
</svg>
